<svg width="24" height="24" viewBox="0 0 24 24" xmlns="http://www.w3.org/2000/svg">
  <rect width="24" height="24" rx="4" fill="#000000"/>
  <path
    d="M12 2C6.5 2 2 6.6 2 12.2c0 4.4 2.9 8.1 6.9 9.4.5.1.7-.2.7-.5v-1.8c-2.8.6-3.4-1.2-3.4-1.2-.5-1.3-1.2-1.6-1.2-1.6-1-.7.1-.7.1-.7 1.1.1 1.7 1.1 1.7 1.1 1 .1.8 2.1 2.9 1.5.1-.7.4-1.2.7-1.5-2.2-.2-4.5-1.1-4.5-5 0-1.1.4-2 1-2.7-.1-.3-.4-1.3.1-2.6 0 0 .8-.3 2.7 1a9 9 0 015 0c1.9-1.3 2.7-1 2.7-1 .5 1.3.2 2.3.1 2.6.6.7 1 1.6 1 2.7 0 3.9-2.3 4.8-4.5 5 .4.3.8 1 .8 2v2.9c0 .3.2.6.7.5 4-1.3 6.9-5 6.9-9.4C22 6.6 17.5 2 12 2z"
    fill="white"
  />
</svg>